<?xml version="1.0" encoding="UTF-8"?>
<svg width="600px" height="1000px" viewBox="0 0 600 1000" version="1.1" xmlns="http://www.w3.org/2000/svg" xmlns:xlink="http://www.w3.org/1999/xlink" style="background: #B32300;">
    <!-- Generator: Sketch 42 (36781) - http://www.bohemiancoding.com/sketch -->
    <title>A6</title>
    <desc>Created with Sketch.</desc>
    <defs></defs>
    <g id="Page-1" stroke="none" stroke-width="1" fill="none" fill-rule="evenodd">
        <g id="A6" stroke-width="3" stroke="#FFFFFF" fill-rule="nonzero">
            <g id="ear" transform="translate(118.000000, 253.000000)">
                <g id="Capa_1">
                    <g id="Group">
                        <path d="M314.807286,52.100493 C281.651381,18.5014965 234.618524,0 182.374857,0 C82.2970714,0 0.881214286,81.6488556 0.881214286,182.00662 L0.881214286,367.087817 C0.881214286,445.838134 38.8377381,494.757729 99.937,494.757729 C186.224738,494.757729 215.419524,432.806039 231.10931,399.515546 L231.488214,398.710299 C247.313571,365.140933 267.409429,351.063063 288.683714,336.157289 C325.124619,310.626444 362.804786,284.22412 363.866762,182.268063 C364.40731,130.183257 347.4435,85.1713732 314.807286,52.100493 Z M273.751738,314.727623 C251.698786,330.177201 226.704976,347.688697 207.91269,387.544912 L207.532048,388.351901 C192.469714,420.314261 169.707619,468.613363 99.937,468.613363 C53.5541905,468.613363 26.9526429,431.61037 26.9526429,367.087817 L26.9526429,182.00662 C26.9526429,96.0631162 96.6745952,26.1443662 182.374857,26.1443662 C227.603571,26.1443662 268.054262,41.8937324 296.275714,70.4886972 C323.906214,98.4875704 338.262881,137.047025 337.795333,181.997905 C336.874143,270.50007 307.622,290.995511 273.751738,314.727623 Z" id="Shape"></path>
                        <path d="M262.798262,144.763099 C266.041548,151.208556 273.882095,153.793363 280.309571,150.541004 C286.73531,147.288644 289.316381,139.426162 286.071357,132.980704 C280.747571,122.407923 273.856024,112.795511 265.586167,104.41537 C242.780619,81.3072359 210.505929,68.5819014 174.701167,68.5819014 C141.529619,68.5819014 108.891667,84.7652641 85.1545,112.985493 C61.738881,140.822271 51.4198095,175.015616 56.8391905,206.798451 C59.6861905,223.494243 74.0671905,230.079137 86.7570238,235.888415 C99.0731667,241.528627 110.7045,246.855106 116.530595,260.298539 C123.180548,275.645282 122.527024,289.08 100.505357,319.925123 C96.3148095,325.795405 97.6635714,333.962905 103.515738,338.165176 C105.815238,339.814014 108.467571,340.608803 111.092095,340.608803 C115.155762,340.608803 119.158595,338.708979 121.703167,335.14463 C143.095643,305.177958 153.69281,280.461074 140.439833,249.877394 C130.628286,227.238116 111.528357,218.491954 97.583619,212.105757 C90.4417857,208.835968 83.0583571,205.45463 82.5351905,202.392254 C78.475,178.572993 86.9030238,151.450827 105.081762,129.841637 C123.85319,107.524806 149.227643,94.7262676 174.699429,94.7262676 C203.4875,94.7262676 229.1835,104.699472 247.052857,122.803574 C253.409071,129.24206 258.705048,136.630458 262.798262,144.763099 Z" id="Shape"></path>
                        <path d="M286.33381,174.156338 C279.132881,174.156338 273.298095,180.007447 273.298095,187.228521 C273.298095,220.890264 266.651619,238.061884 248.771833,250.590264 C242.869262,254.72456 241.428381,262.87463 245.552881,268.791972 C248.087024,272.429525 252.135048,274.378151 256.249119,274.378151 C258.824976,274.378151 261.430381,273.612993 263.70381,272.018187 C295.046881,250.055176 299.369524,218.288028 299.369524,187.228521 C299.369524,180.007447 293.534738,174.156338 286.33381,174.156338 Z" id="Shape"></path>
                    </g>
                </g>
            </g>
        </g>
    </g>
</svg>