<?xml version="1.0" encoding="UTF-8"?>
<svg width="600px" height="1000px" viewBox="0 0 600 1000" version="1.1" xmlns="http://www.w3.org/2000/svg" xmlns:xlink="http://www.w3.org/1999/xlink" style="background: #B32300;">
    <!-- Generator: Sketch 42 (36781) - http://www.bohemiancoding.com/sketch -->
    <title>A6</title>
    <desc>Created with Sketch.</desc>
    <defs></defs>
    <g id="Page-1" stroke="none" stroke-width="1" fill="none" fill-rule="evenodd">
        <g id="A6" stroke-width="3" stroke="#FFFFFF" fill-rule="nonzero">
            <g id="eye" transform="translate(37.000000, 346.000000)">
                <g id="Capa_1">
                    <g id="Group">
                        <path d="M263.427901,308.111306 C204.182248,308.111306 140.419395,283.289157 79.0331377,236.326264 C33.1436208,201.220289 4.81993679,166.439913 3.63640632,164.974079 C-1.21213544,158.976669 -1.21213544,150.074405 3.63640632,144.075719 C4.81993679,142.612438 33.1424289,107.829508 79.0331377,72.7235331 C140.420587,25.7644711 204.18344,0.939768595 263.427901,0.939768595 C322.673553,0.939768595 386.437598,25.7631942 447.822664,72.7235331 C493.712181,107.829508 522.035865,142.611161 523.219395,144.075719 C528.067937,150.073128 528.067937,158.975393 523.219395,164.974079 C522.035865,166.43736 493.713372,201.220289 447.822664,236.326264 C386.437598,283.28788 322.674745,308.111306 263.427901,308.111306 Z M35.3247494,154.526814 C46.7786546,167.03876 68.3956659,189.040326 96.9374628,210.799289 C136.066673,240.628004 196.713968,276.189818 263.427901,276.189818 C330.141833,276.189818 390.790321,240.628004 429.918339,210.799289 C458.45656,189.044157 480.074763,167.040037 491.531052,154.526814 C480.078339,142.014868 458.460135,120.013302 429.918339,98.2543388 C390.790321,68.4243471 330.141833,32.8638099 263.427901,32.8638099 C196.713968,32.8638099 136.066673,68.4243471 96.9374628,98.2543388 C68.3992415,120.009471 46.7810384,142.011037 35.3247494,154.526814 Z" id="Shape"></path>
                        <path d="M263.427901,253.483426 C212.494375,253.483426 171.057698,209.090851 171.057698,154.526814 C171.057698,99.9627769 212.494375,55.5702025 263.427901,55.5702025 C285.827973,55.5702025 307.436641,64.2707231 324.270664,80.0705826 C330.460063,85.8790165 331.082221,95.962376 325.660388,102.593107 C320.238555,109.223839 310.825138,109.889083 304.63693,104.081926 C293.237851,93.3831198 278.601643,87.4916901 263.426709,87.4916901 C228.92316,87.4916901 200.853345,117.564285 200.853345,154.526814 C200.853345,191.489343 228.92316,221.561938 263.426709,221.561938 C297.931449,221.561938 326.000072,191.489343 326.000072,154.526814 C326.000072,145.712653 332.670989,138.56607 340.898492,138.56607 C349.125995,138.56607 355.796912,145.712653 355.796912,154.526814 C355.799296,209.090851 314.361427,253.483426 263.427901,253.483426 Z" id="Shape"></path>
                        <path d="M263.427901,186.448302 C246.997923,186.448302 233.631061,172.128322 233.631061,154.526814 C233.631061,136.925306 246.997923,122.605326 263.427901,122.605326 C279.85907,122.605326 293.22474,136.925306 293.22474,154.526814 C293.22474,172.128322 279.85907,186.448302 263.427901,186.448302 Z" id="Shape"></path>
                    </g>
                </g>
            </g>
        </g>
    </g>
</svg>